<?xml version="1.0" standalone="no"?>
<!DOCTYPE svg PUBLIC "-//W3C//DTD SVG 20010904//EN"
 "http://www.w3.org/TR/2001/REC-SVG-20010904/DTD/svg10.dtd">
<svg version="1.0" xmlns="http://www.w3.org/2000/svg"
 width="498.000000pt" height="501.000000pt" viewBox="0 0 498.000000 501.000000"
 preserveAspectRatio="xMidYMid meet">

<g transform="translate(0.000000,501.000000) scale(0.100000,-0.100000)"
fill="#000000" stroke="none">
<path d="M1935 3466 c-148 -29 -250 -85 -378 -206 -219 -207 -292 -541 -171
-783 44 -88 113 -175 181 -232 102 -84 256 -158 355 -171 27 -4 48 -11 48 -17
0 -18 -141 -267 -150 -267 -6 0 -22 24 -36 52 -18 36 -21 48 -10 39 9 -7 16
-11 16 -8 0 10 -101 182 -116 197 -11 12 -39 15 -120 14 -58 -1 -109 -5 -114
-10 -7 -7 -16 -465 -11 -546 1 -16 13 -18 101 -18 120 0 120 -1 120 132 l0 93
63 -97 c60 -93 63 -97 99 -97 56 -1 64 5 115 90 26 43 50 79 55 79 4 0 8 -40
8 -89 0 -116 5 -121 113 -121 45 0 88 4 95 8 15 10 16 24 14 155 -2 79 -5 97
-17 97 -10 0 -15 10 -15 30 0 20 5 30 15 30 12 0 13 19 8 118 l-6 118 82 22
c84 22 176 61 223 94 34 23 34 23 41 -12 9 -44 46 -57 202 -70 173 -16 322 -8
346 17 10 10 34 61 54 113 49 123 129 282 286 560 69 124 151 274 182 334 55
105 57 112 61 204 5 94 5 95 -25 124 l-30 30 -267 -4 c-147 -3 -372 -1 -500 5
-271 11 -259 15 -287 -88 -9 -36 -22 -65 -28 -65 -5 0 -25 11 -44 25 -46 36
-167 92 -238 110 -86 22 -236 27 -320 11z m255 -76 c108 -22 213 -70 279 -128
49 -42 51 -72 7 -72 -18 0 -24 4 -20 14 3 8 1 17 -5 21 -6 3 -11 1 -11 -4 0
-15 -18 -14 -23 2 -2 6 -3 5 -2 -4 2 -14 -4 -16 -36 -12 -35 5 -39 4 -33 -13
4 -11 4 -16 -1 -12 -12 12 -47 -12 -41 -28 7 -18 -2 -18 -20 1 -14 13 -14 15
0 15 9 0 16 7 16 15 0 8 6 15 13 15 19 0 -15 20 -35 20 -11 0 -18 -10 -20 -27
-2 -14 -9 -29 -17 -31 -8 -3 -11 0 -7 6 6 10 -30 28 -46 24 -3 -1 -4 14 -2 33
3 26 0 35 -11 35 -8 0 -15 -4 -15 -8 0 -5 -10 -14 -22 -20 l-23 -11 23 0 c33
-1 27 -21 -7 -21 -28 0 -47 22 -35 41 3 5 -13 9 -34 9 -24 0 -42 -5 -45 -13
-3 -9 -22 -13 -56 -13 -28 1 -52 -3 -54 -9 -2 -5 -6 1 -9 13 -4 12 -2 20 3 16
5 -3 9 0 9 6 0 7 -7 9 -15 6 -9 -3 -24 -1 -34 6 -13 8 -23 8 -37 -1 -17 -11
-17 -11 4 -6 29 8 52 -10 52 -41 0 -13 5 -24 11 -24 19 0 -1 -18 -26 -22 -28
-6 -34 6 -10 20 9 5 13 15 10 24 -7 17 -21 18 -43 5 -8 -6 -15 0 -22 17 -12
33 -16 32 -34 -2 -14 -28 -7 -60 11 -49 5 3 15 2 23 -3 10 -6 -2 -9 -35 -8
-27 0 -44 3 -36 6 11 4 11 6 0 13 -12 8 -11 11 1 19 8 5 11 10 5 10 -15 -1
-55 -37 -55 -50 0 -6 -4 -9 -9 -6 -13 8 -133 -129 -128 -146 1 -3 -7 -17 -19
-30 -11 -13 -31 -47 -45 -77 -21 -48 -24 -68 -24 -175 0 -117 1 -124 37 -211
20 -49 35 -91 33 -93 -8 -8 -73 147 -84 198 -13 67 -17 202 -7 250 43 201 175
373 353 459 68 34 207 69 273 70 19 0 78 -8 130 -19z m1008 2 c241 -4 383 -11
385 -17 3 -15 -286 -25 -557 -19 -171 4 -236 3 -232 -5 4 -6 3 -11 -3 -11 -5
0 -18 -3 -28 -6 -15 -5 -15 -4 -3 5 17 12 6 14 -27 5 -13 -4 -23 -14 -23 -23
0 -13 -2 -14 -9 -2 -8 12 -12 9 -22 -15 -6 -16 -15 -38 -20 -49 -5 -11 -13
-39 -18 -63 -7 -35 -6 -44 8 -52 9 -5 12 -9 6 -10 -22 0 -30 17 -29 65 1 85
16 185 29 198 8 8 37 11 86 9 41 -2 246 -6 457 -10z m-1151 -188 c-3 -3 -12
-4 -19 -1 -8 3 -5 6 6 6 11 1 17 -2 13 -5z m413 -29 c10 -13 9 -15 -9 -15 -11
0 -21 5 -21 11 0 5 -4 7 -10 4 -5 -3 -10 -1 -10 4 0 16 36 13 50 -4z m-287 -6
c10 0 31 -6 48 -13 l31 -13 -27 -5 c-14 -3 -41 -2 -59 2 -51 11 -186 -4 -236
-28 -47 -22 -83 -52 -137 -115 -18 -21 -33 -34 -33 -29 0 14 59 92 70 92 5 0
7 7 4 15 -4 10 -2 13 8 10 7 -3 23 3 33 13 11 10 36 24 55 32 19 8 38 19 42
26 5 7 18 10 30 7 14 -3 18 -1 11 4 -6 4 22 7 65 5 43 -2 85 -3 95 -3z m1355
-25 c-7 -16 -15 -31 -18 -34 -3 -3 -13 -21 -22 -40 -30 -60 -102 -186 -120
-211 l-18 -24 11 30 c6 16 14 32 18 35 4 3 15 21 25 40 9 19 30 58 45 85 16
28 41 74 56 103 29 55 45 66 23 16z m-1181 20 c-3 -3 -12 -4 -19 -1 -8 3 -5 6
6 6 11 1 17 -2 13 -5z m67 -19 c-4 -9 -1 -15 7 -15 7 0 2 -8 -11 -17 -14 -9
-29 -23 -35 -30 -7 -9 -15 -10 -25 -3 -13 9 -12 12 4 25 11 8 26 15 33 15 7 0
13 4 13 9 0 4 -11 6 -25 3 -14 -2 -25 0 -25 6 0 6 15 13 33 15 17 2 33 5 34 5
1 1 0 -5 -3 -13z m-74 -9 c0 -3 -4 -8 -10 -11 -5 -3 -10 -1 -10 4 0 6 5 11 10
11 6 0 10 -2 10 -4z m373 -3 c-7 -2 -19 -2 -25 0 -7 3 -2 5 12 5 14 0 19 -2
13 -5z m-418 -33 c10 -11 21 -17 25 -15 4 3 13 -2 20 -10 21 -26 -7 -17 -52
15 -22 17 -34 30 -26 30 8 0 23 -9 33 -20z m267 -40 c28 -17 52 -20 148 -21
63 -1 156 -4 207 -8 l92 -6 -44 -70 c-24 -38 -62 -101 -86 -140 -77 -128 -181
-286 -185 -282 -3 2 1 70 7 150 l11 146 -25 27 c-24 26 -34 28 -134 35 -157
11 -511 11 -532 -1 -15 -7 -19 -27 -24 -102 -3 -51 -3 -124 1 -163 7 -67 8
-71 42 -87 21 -11 59 -18 95 -18 55 -1 58 -2 41 -15 -23 -18 -123 -20 -178 -5
-57 16 -120 70 -153 130 -26 48 -30 65 -30 130 1 89 29 154 94 213 55 50 101
67 181 67 73 0 133 -25 198 -81 18 -16 35 -29 38 -29 15 0 56 29 122 86 40 35
75 64 77 64 3 0 19 -9 37 -20z m628 -8 c0 -4 -7 -17 -15 -27 -53 -69 -85 -115
-85 -121 0 -3 -13 -23 -30 -43 -50 -61 -54 -67 -70 -94 -8 -14 -51 -86 -96
-159 -44 -73 -98 -164 -119 -203 -56 -104 -77 -137 -82 -132 -6 7 42 129 86
214 23 44 41 83 41 87 0 11 163 270 180 286 3 3 17 20 30 39 13 18 43 52 68
75 25 22 55 51 66 64 21 24 26 26 26 14z m-1450 -143 c-7 -11 -14 -19 -16 -16
-7 7 7 37 17 37 6 0 5 -9 -1 -21z m-23 -61 c-3 -8 -6 -5 -6 6 -1 11 2 17 5 13
3 -3 4 -12 1 -19z m883 -32 c13 -5 14 -24 8 -119 -3 -61 -7 -130 -7 -151 -1
-22 -4 -37 -7 -34 -3 4 -6 64 -7 135 l-2 128 -173 -1 c-95 -1 -167 3 -160 7 7
5 -5 5 -27 2 -22 -4 -51 -7 -65 -7 -32 -1 -46 -20 -55 -73 -11 -70 -3 -81 63
-86 48 -3 46 -4 -13 -3 l-70 1 -3 99 c-2 73 1 102 10 108 14 10 484 5 508 -6z
m740 -6 c-6 -11 -12 -20 -14 -20 -2 0 -2 9 1 20 3 11 9 20 15 20 5 0 4 -9 -2
-20z m-39 -72 c-24 -39 -28 -30 -5 13 8 17 18 28 21 25 3 -3 -4 -20 -16 -38z
m-46 -78 c-9 -16 -18 -30 -21 -30 -2 0 2 14 11 30 9 17 18 30 21 30 2 0 -2
-13 -11 -30z m-1490 -70 c13 0 40 -49 36 -65 -2 -5 1 -7 5 -3 4 4 23 -7 42
-24 20 -17 61 -43 92 -57 47 -22 68 -25 145 -24 75 1 102 6 165 31 80 33 100
33 60 0 -62 -50 -122 -72 -215 -76 -79 -4 -98 -1 -153 22 -94 38 -178 121
-218 215 -23 56 -16 83 8 29 12 -27 27 -48 33 -48z m595 -84 c0 -3 -4 -8 -10
-11 -5 -3 -10 -1 -10 4 0 6 5 11 10 11 6 0 10 -2 10 -4z m227 -38 c-3 -7 -5
-2 -5 12 0 14 2 19 5 13 2 -7 2 -19 0 -25z m-1017 -80 c0 -6 -7 -5 -15 2 -8 7
-15 17 -15 22 0 6 7 5 15 -2 8 -7 15 -17 15 -22z m617 -495 c-3 -10 -5 -2 -5
17 0 19 2 27 5 18 2 -10 2 -26 0 -35z m-177 -119 c0 -8 -4 -12 -10 -9 -5 3
-10 13 -10 21 0 8 5 12 10 9 6 -3 10 -13 10 -21z"/>
<path d="M2030 3280 c0 -5 7 -10 16 -10 8 0 12 5 9 10 -3 6 -10 10 -16 10 -5
0 -9 -4 -9 -10z"/>
<path d="M2258 3283 c7 -3 16 -2 19 1 4 3 -2 6 -13 5 -11 0 -14 -3 -6 -6z"/>
<path d="M2315 3280 c-3 -6 1 -7 9 -4 18 7 21 14 7 14 -6 0 -13 -4 -16 -10z"/>
<path d="M1881 3276 c2 -2 18 -6 34 -10 22 -5 26 -4 15 4 -14 9 -59 15 -49 6z"/>
<path d="M2120 3255 c0 -9 5 -15 11 -13 6 2 11 8 11 13 0 5 -5 11 -11 13 -6 2
-11 -4 -11 -13z"/>
<path d="M2268 3263 c6 -2 18 -2 25 0 6 3 1 5 -13 5 -14 0 -19 -2 -12 -5z"/>
<path d="M2180 3156 c0 -2 7 -7 16 -10 8 -3 12 -2 9 4 -6 10 -25 14 -25 6z"/>
<path d="M1766 2567 c3 -10 9 -15 12 -12 3 3 0 11 -7 18 -10 9 -11 8 -5 -6z"/>
<path d="M1830 2490 c0 -5 5 -10 11 -10 5 0 7 5 4 10 -3 6 -8 10 -11 10 -2 0
-4 -4 -4 -10z"/>
<path d="M3263 2021 c-13 -11 -24 -29 -26 -40 -2 -12 -9 -27 -15 -33 -7 -7
-12 -18 -12 -24 0 -14 -39 -84 -47 -84 -3 0 -2 12 2 28 4 15 9 42 11 61 l5 34
-93 -8 c-51 -4 -97 -7 -103 -6 -84 13 -121 12 -156 -4 -21 -10 -39 -22 -39
-27 0 -5 4 -7 9 -4 5 4 12 -8 16 -25 6 -24 3 -34 -9 -41 -20 -11 -21 -42 -1
-58 17 -14 22 -115 6 -124 -12 -8 -21 19 -21 65 0 38 -13 52 -23 27 -3 -7 -3
3 0 23 4 27 1 38 -11 42 -13 5 -16 -2 -17 -41 -1 -35 -4 -26 -9 33 -5 44 -6
83 -3 88 2 4 -3 7 -12 7 -8 0 -39 13 -68 30 -41 23 -72 31 -129 36 -115 10
-186 -21 -234 -102 -27 -45 -34 -105 -10 -85 11 9 12 6 8 -15 -5 -26 -4 -26
49 -23 31 2 55 0 56 -6 2 -6 -24 -9 -67 -6 l-70 3 0 -48 c1 -134 146 -229 275
-179 41 15 46 15 61 0 12 -12 32 -15 83 -13 l66 3 2 60 c4 90 12 125 28 125
12 0 15 -17 15 -85 0 -83 1 -86 27 -96 14 -5 63 -8 107 -7 l81 3 3 101 c2 86
6 104 22 119 17 16 24 16 44 6 38 -21 64 -6 80 47 8 26 15 39 15 30 1 -10 9
-18 18 -18 9 0 32 -5 50 -12 29 -11 33 -16 33 -49 0 -20 7 -42 15 -49 15 -13
21 -61 8 -58 -17 3 -43 -15 -43 -31 0 -10 14 -30 30 -46 23 -22 44 -31 88 -36
64 -8 196 -11 203 -5 2 2 3 26 1 53 l-4 48 -37 -3 c-25 -3 -44 2 -58 15 -20
16 -22 25 -16 81 5 57 8 62 29 62 13 0 24 4 24 10 0 5 16 12 35 16 36 6 57 25
37 32 -8 2 -10 20 -6 57 6 47 4 54 -14 64 -28 15 -79 14 -85 -1 -3 -7 -6 10
-6 38 l-1 51 -46 7 c-80 11 -128 7 -151 -13z m-183 -126 c0 -6 -73 -55 -83
-55 -15 0 4 21 37 41 31 19 46 23 46 14z m-203 -21 c-3 -3 -12 -4 -19 -1 -8 3
-5 6 6 6 11 1 17 -2 13 -5z m-349 -106 c35 -35 -22 -120 -74 -110 -13 2 -27 9
-30 14 -4 6 2 7 16 3 l22 -7 -21 21 c-25 25 -26 39 -5 69 17 25 71 31 92 10z
m279 -140 c-3 -8 -6 -5 -6 6 -1 11 2 17 5 13 3 -3 4 -12 1 -19z"/>
<path d="M3451 1663 c-2 -23 11 -43 28 -43 15 1 15 2 0 13 -9 7 -18 19 -22 27
-3 8 -6 10 -6 3z"/>
</g>
</svg>
